# xmcd
#
# Track frame offsets: 
#        174
#        19527
#        40239
#        55708
#        76066
#        92754
#        124166
#        161661
#        185339
#        231841
#        247797
#
# Disc length: 3531 seconds
#
# Revision: 4
# Processed by: cddbd v1.5.2PL0 Copyright (c) Steve Scherf et al.
# Submitted via: ExactAudioCopy v0.99pb5
#
DISCID=790dc90b
DTITLE=Ad Vanderveen - Cloud Of Unknowing
DYEAR=2006
DGENRE=Folk
TTITLE0=To Say I Love You
TTITLE1=No Man's Land
TTITLE2=Whose Blues
TTITLE3=Home To Me
TTITLE4=Love's Why You're Alive
TTITLE5=Going To The Well
TTITLE6=Stationary Ways
TTITLE7=Every Day People
TTITLE8=Cloud Of Unknowing
TTITLE9=Wild Horses
TTITLE10=Fate's Final Word
EXTD=YEAR: 2006
EXTT0=
EXTT1=
EXTT2=
EXTT3=
EXTT4=
EXTT5=
EXTT6=
EXTT7=
EXTT8=
EXTT9=
EXTT10=
PLAYORDER=
